<mxfile host="Electron" modified="2023-05-10T12:49:37.909Z" agent="Mozilla/5.0 (Windows NT 10.0; Win64; x64) AppleWebKit/537.36 (KHTML, like Gecko) draw.io/21.2.1 Chrome/112.0.5615.87 Electron/24.1.2 Safari/537.36" etag="V3K4_DX4y9rqx-CkPMhn" version="21.2.1" type="device">
  <diagram name="Page-1" id="hjz2gtyqen0l3UxlfZDe">
    <mxGraphModel dx="1098" dy="988" grid="1" gridSize="10" guides="1" tooltips="1" connect="1" arrows="1" fold="1" page="1" pageScale="1" pageWidth="1169" pageHeight="827" math="0" shadow="0">
      <root>
        <mxCell id="0" />
        <mxCell id="1" parent="0" />
        <mxCell id="0uX3aRHzIpcL3okuz2gF-1" value="Agent" style="rounded=1;whiteSpace=wrap;html=1;arcSize=9;fontSize=15;fontColor=#374057;strokeColor=#374057;" parent="1" vertex="1">
          <mxGeometry x="240" y="210" width="120" height="60" as="geometry" />
        </mxCell>
        <mxCell id="0uX3aRHzIpcL3okuz2gF-15" value="État,&lt;br&gt;Récompenses" style="edgeStyle=orthogonalEdgeStyle;rounded=0;orthogonalLoop=1;jettySize=auto;html=1;entryX=0.5;entryY=1;entryDx=0;entryDy=0;exitX=0.5;exitY=1;exitDx=0;exitDy=0;curved=1;endSize=10;endArrow=block;endFill=0;labelBackgroundColor=none;fontColor=#374057;strokeColor=#374057;" parent="1" source="0uX3aRHzIpcL3okuz2gF-11" target="0uX3aRHzIpcL3okuz2gF-1" edge="1">
          <mxGeometry x="0.0002" y="20" relative="1" as="geometry">
            <Array as="points">
              <mxPoint x="500" y="320" />
              <mxPoint x="300" y="320" />
            </Array>
            <mxPoint as="offset" />
          </mxGeometry>
        </mxCell>
        <mxCell id="0uX3aRHzIpcL3okuz2gF-11" value="Environnement" style="rounded=1;whiteSpace=wrap;html=1;arcSize=9;fontSize=15;fontColor=#374057;strokeColor=#374057;" parent="1" vertex="1">
          <mxGeometry x="440" y="210" width="120" height="60" as="geometry" />
        </mxCell>
        <mxCell id="0uX3aRHzIpcL3okuz2gF-17" style="edgeStyle=orthogonalEdgeStyle;rounded=0;orthogonalLoop=1;jettySize=auto;html=1;entryX=0.5;entryY=0;entryDx=0;entryDy=0;exitX=0.5;exitY=0;exitDx=0;exitDy=0;endSize=10;endArrow=block;endFill=0;curved=1;sourcePerimeterSpacing=0;targetPerimeterSpacing=0;shadow=0;fontColor=#374057;strokeColor=#374057;" parent="1" source="0uX3aRHzIpcL3okuz2gF-1" edge="1">
          <mxGeometry relative="1" as="geometry">
            <mxPoint x="300" y="210" as="sourcePoint" />
            <mxPoint x="500" y="210" as="targetPoint" />
            <Array as="points">
              <mxPoint x="300" y="160" />
              <mxPoint x="500" y="160" />
            </Array>
          </mxGeometry>
        </mxCell>
        <mxCell id="0uX3aRHzIpcL3okuz2gF-19" value="Action" style="edgeLabel;html=1;align=center;verticalAlign=middle;resizable=0;points=[];labelBackgroundColor=none;fontColor=#374057;" parent="0uX3aRHzIpcL3okuz2gF-17" vertex="1" connectable="0">
          <mxGeometry x="-0.0469" y="-2" relative="1" as="geometry">
            <mxPoint x="7" y="-12" as="offset" />
          </mxGeometry>
        </mxCell>
      </root>
    </mxGraphModel>
  </diagram>
</mxfile>
